PathFileType	4	(X/Y/Z)	pose2sim_0-881.trc
DataRate	CameraRate	NumFrames	NumMarkers	Units	OrigDataRate	OrigDataStartFrame	OrigNumFrames
50	50	5	22	m	50	441	882
Frame#	Time	Hip			RHip			RKnee			RAnkle			RBigToe			RSmallToe			RHeel			LHip			LKnee			LAnkle			LBigToe			LSmallToe			LHeel			Neck			Head			Nose			RShoulder			RElbow			RWrist			LShoulder			LElbow			LWrist			
		X1	Y1	Z1	X2	Y2	Z2	X3	Y3	Z3	X4	Y4	Z4	X5	Y5	Z5	X6	Y6	Z6	X7	Y7	Z7	X8	Y8	Z8	X9	Y9	Z9	X10	Y10	Z10	X11	Y11	Z11	X12	Y12	Z12	X13	Y13	Z13	X14	Y14	Z14	X15	Y15	Z15	X16	Y16	Z16	X17	Y17	Z17	X18	Y18	Z18	X19	Y19	Z19	X20	Y20	Z20	X21	Y21	Z21	X22	Y22	Z22	
441	8.82	0.135670741830311	1.0031303039279662	0.00782280993643588	0.03498537527405929	0.994496452880212	0.02717933263418127	0.010041113893923828	0.5238201800987585	-0.05668377857458324	-0.0027661665318311807	0.0923135301047612	-0.08013370311672288	0.008294752577396543	0.04343517588879526	0.08501674265471564	-0.04404437176379406	0.04708964251278629	0.0501016758066597	0.008646014039845747	0.046323146525572394	-0.13318779245363965	0.23410928717774002	0.98526379649005	-0.001029705877903771	0.24186818564875123	0.5211391726787931	-0.09506765766456667	0.24415278210376828	0.09226806566860676	-0.11384982782806592	0.2633141749737744	0.04794927869537528	0.06615002734329907	0.3114856351091706	0.05394988045258014	0.026247183394559545	0.23244688086914236	0.036937107442360874	-0.16621307787300177	0.1459047023824973	1.5767900357773263	-0.025952131133238014	0.1484436103350172	1.8288316358747403	-0.006775210164833247	0.14375537867620744	1.7009373418118396	0.029693506574121103	-0.012131979692936803	1.4956328873866314	0.008974216176758414	-0.085901738932616	1.2613701345009918	0.11121517442766694	-0.0800679411515313	1.4827174760060733	0.10792430527456032	0.30819263284425014	1.4928159788119282	-0.03413638129659169	0.3669269819007174	1.2549166513059997	0.061455268131429826	0.3687283856798645	1.4415919044662797	0.04683069662017324
442	8.84	0.1380722390160679	1.003521878146292	0.010965389239892242	0.033307012522577104	0.9903933264788773	0.012708004767929111	0.00963665354511538	0.529110306968882	-0.05744559233656307	0.0016129979678497892	0.0938025002480972	-0.08143006657271258	0.011557306295595978	0.04390003566341414	0.07031027286152791	-0.04072061272611423	0.047953184552215394	0.036051457804286924	0.0075256378235325485	0.04511207640372241	-0.13446380230084282	0.2333055361258484	0.9847898449329159	-0.006666180752211207	0.23809384767308023	0.5209994638718123	-0.09404745897354455	0.24343326002269805	0.08658699642175778	-0.12034133126052399	0.2574769797277642	0.04250556078597213	0.053677534002839644	0.3095310423324214	0.04730285971674143	0.01922273511216173	0.23486867033039416	0.036281345809647286	-0.1651045965379509	0.14466784015401982	1.5751587273520125	-0.029682315167902366	0.15028642528821462	1.8218837600898559	-0.0040644845939181475	0.14545257655867033	1.6973080565168983	0.03247653265896618	-0.013408529095712277	1.4961846291911012	0.008834090694096285	-0.08998027355557794	1.2593094885155043	0.11973546365183563	-0.07937245088647867	1.4745000456114667	0.10272301125081286	0.30434048371327177	1.4907072157858774	-0.03454159753503011	0.3718288278155953	1.2610459703223007	0.06690800661246087	0.3646522628134267	1.4449711792724538	0.04530705756187308
443	8.86	0.1394044552711613	1.0020051537528631	0.014639677797670362	0.03535310388196729	0.9888958762210738	0.015834138560414747	0.008369926192353189	0.5267465035730696	-0.060384340835281394	0.0010807161276882023	0.09435932950508877	-0.08443696450598401	0.011996535933010446	0.042942932991774325	0.07990566095019008	-0.04032572362273531	0.04976697336029428	0.04599298337099618	0.009583285469928234	0.04791809210652487	-0.12992079043204963	0.23414352675104974	0.986340852323198	-0.002422833855405902	0.23870503294854276	0.5203791011128023	-0.08901342470859452	0.24096028175644288	0.09742403073596512	-0.10755181115197782	0.25592017749501955	0.04194947848101365	0.06404295038170886	0.30676873634037577	0.045381826928588276	0.016549421436872054	0.22951999907532544	0.04264197297310051	-0.1592941897360977	0.14622221255580073	1.577111992092374	-0.02539152417330768	0.14868211895653582	1.8253035964176847	-0.006408625347867299	0.14457647586962316	1.700112976635473	0.04291832382293531	-0.010775723001834865	1.498923765597734	0.012066442769269494	-0.0890672065265886	1.2645371662407043	0.12837811691637224	-0.07969349565815886	1.4740562254550864	0.098766594655057	0.30439809423769293	1.4962250600304203	-0.0428974371830676	0.37437689932759	1.2648339189708442	0.06483223711398896	0.36733687856962677	1.4426501926836572	0.04386475493141032
444	8.88	0.13853592181302216	0.9962301128405882	0.01734192319928041	0.036155032642935146	0.9805576102791421	0.019999834705460386	0.008711452082561121	0.5132566297898876	-0.06263291857125591	0.0009105134023774435	0.0885238518206175	-0.09599551054916505	0.0008419072872530881	0.05112728198953563	0.13496183161810169	-0.04533839222142749	0.046911716777010365	0.07376343564844721	0.006707583559779529	0.02943387931995409	-0.15967189585762467	0.23325912602456905	0.9757442748025128	0.0017208255620667404	0.23893596224365152	0.5095847647831978	-0.10221179061285011	0.2413035972581905	0.08612013809760174	-0.1077650805561576	0.2662228015947132	0.049565689844954075	0.08847010333680032	0.30778612123985943	0.05146162613912206	0.042610129383763407	0.22896268160628924	0.02763481598058112	-0.17029253429827482	0.14672238312507344	1.5704868643428351	-0.03134419973747984	0.14937397141176592	1.825130513166187	-0.003254439089677673	0.1415117189630298	1.6980559234573145	0.04873878831420344	-0.008827495089967314	1.493514605248393	-0.014005060091875262	-0.08065562224505347	1.2647658084623092	0.11244116725246135	-0.06346593890017234	1.4977566396662196	0.10325367057249829	0.30222593918338786	1.4908445315432342	-0.0420294501965633	0.37888139327204345	1.2672126196592275	0.07526747190662211	0.37284920744691963	1.464215112238954	0.04708583702163862
445	8.9	0.13659669330453564	1.0029844029667372	0.01313750303167923	0.03251347772983458	0.9882078045363457	0.025926300597142102	0.007603920571288322	0.5228835361786976	-0.05783163146003935	0.0010006581905912316	0.09720853622135811	-0.08180336584908125	0.008423773664322927	0.04036698695316912	0.07681052835166946	-0.04441546444378488	0.046770804308829565	0.0419909787617682	0.009390456919682029	0.050383063417684025	-0.12717989766868834	0.2316904389456126	0.9844133369422606	-0.002417225995866492	0.23942530149235436	0.5202329893836115	-0.0965517415545665	0.24216710711562484	0.08845651400081352	-0.11558052145167597	0.26096918407804653	0.04696664945394273	0.06472971360966909	0.3124734178910206	0.04823813696339894	0.017755827159325843	0.2304731542895537	0.03956081298545489	-0.16792166460455268	0.1493745490293869	1.5760069911978556	-0.02741310292485306	0.15184798757412618	1.8281438861272798	-0.008204646244691792	0.14784380963991509	1.6996162883421506	0.041166157585764744	-0.014481602477181261	1.5027178377730204	0.008112200668464685	-0.08708501895214132	1.269250081193337	0.12312338033853819	-0.08007789719809748	1.4829662572269473	0.10033436822806062	0.3057468849366971	1.4945709831102205	-0.035425834099728895	0.3736437106004453	1.2657689440235305	0.067196025953022	0.3666523063749452	1.4554475239403122	0.058251557114988674
